<?xml version="1.0" encoding="UTF-8" standalone="no"?>
<!DOCTYPE svg PUBLIC "-//W3C//DTD SVG 1.1//EN"
 "http://www.w3.org/Graphics/SVG/1.1/DTD/svg11.dtd">
<!-- Generated by graphviz version 2.43.0 (0)
 -->
<!-- Title: %3 Pages: 1 -->
<svg width="314pt" height="1186pt"
 viewBox="0.00 0.00 314.29 1186.00" xmlns="http://www.w3.org/2000/svg" xmlns:xlink="http://www.w3.org/1999/xlink">
<g id="graph0" class="graph" transform="scale(1 1) rotate(0) translate(4 1182)">
<title>%3</title>
<polygon fill="white" stroke="transparent" points="-4,4 -4,-1182 310.29,-1182 310.29,4 -4,4"/>
<!-- SITIO -->
<g id="node1" class="node">
<title>SITIO</title>
<polygon fill="white" stroke="black" points="278.79,-260 224.79,-260 224.79,-224 278.79,-224 278.79,-260"/>
<text text-anchor="middle" x="251.79" y="-239.5" font-family="Courier,monospace" font-size="10.00">SITIO</text>
</g>
<!-- SITIO_id_number -->
<g id="node2" class="node">
<title>SITIO_id_number</title>
<ellipse fill="white" stroke="black" cx="80.65" cy="-458" rx="41.59" ry="18"/>
<text text-anchor="start" x="53.15" y="-456.5" font-family="Courier,monospace" text-decoration="underline" font-size="10.00">id_number</text>
</g>
<!-- SITIO_id_number&#45;&#45;SITIO -->
<g id="edge1" class="edge">
<title>SITIO_id_number&#45;&#45;SITIO</title>
<path fill="none" stroke="black" d="M120.14,-451.54C134.39,-447.57 149.85,-441.2 161.29,-431 214.56,-383.55 238.79,-297.59 247.17,-260.19"/>
</g>
<!-- SITIO_unnique_number -->
<g id="node3" class="node">
<title>SITIO_unnique_number</title>
<ellipse fill="white" stroke="black" cx="80.65" cy="-404" rx="59.41" ry="18"/>
<text text-anchor="middle" x="80.65" y="-401.5" font-family="Courier,monospace" font-size="10.00">unnique_number</text>
</g>
<!-- SITIO_unnique_number&#45;&#45;SITIO -->
<g id="edge2" class="edge">
<title>SITIO_unnique_number&#45;&#45;SITIO</title>
<path fill="none" stroke="black" d="M129.28,-393.51C140.51,-389.57 151.92,-384.21 161.29,-377 202.52,-345.26 230.9,-288.9 243.47,-260.07"/>
</g>
<!-- SITIO_name_en -->
<g id="node4" class="node">
<title>SITIO_name_en</title>
<ellipse fill="white" stroke="black" cx="80.65" cy="-350" rx="34.96" ry="18"/>
<text text-anchor="middle" x="80.65" y="-347.5" font-family="Courier,monospace" font-size="10.00">name_en</text>
</g>
<!-- SITIO_name_en&#45;&#45;SITIO -->
<g id="edge3" class="edge">
<title>SITIO_name_en&#45;&#45;SITIO</title>
<path fill="none" stroke="black" d="M112.79,-342.64C128.05,-338.25 146.31,-331.8 161.29,-323 190.38,-305.91 218.28,-278.28 234.98,-260.12"/>
</g>
<!-- SITIO_short_description_en -->
<g id="node5" class="node">
<title>SITIO_short_description_en</title>
<ellipse fill="white" stroke="black" cx="80.65" cy="-296" rx="80.79" ry="18"/>
<text text-anchor="middle" x="80.65" y="-293.5" font-family="Courier,monospace" font-size="10.00">short_description_en</text>
</g>
<!-- SITIO_short_description_en&#45;&#45;SITIO -->
<g id="edge4" class="edge">
<title>SITIO_short_description_en&#45;&#45;SITIO</title>
<path fill="none" stroke="black" d="M127.87,-281.24C158.97,-271.31 198.86,-258.58 224.62,-250.36"/>
</g>
<!-- SITIO_date_inscribed -->
<g id="node6" class="node">
<title>SITIO_date_inscribed</title>
<ellipse fill="white" stroke="black" cx="80.65" cy="-242" rx="59.41" ry="18"/>
<text text-anchor="middle" x="80.65" y="-239.5" font-family="Courier,monospace" font-size="10.00">date_inscribed</text>
</g>
<!-- SITIO_date_inscribed&#45;&#45;SITIO -->
<g id="edge5" class="edge">
<title>SITIO_date_inscribed&#45;&#45;SITIO</title>
<path fill="none" stroke="black" d="M140.33,-242C168.96,-242 201.96,-242 224.38,-242"/>
</g>
<!-- SITIO_secondary_date -->
<g id="node7" class="node">
<title>SITIO_secondary_date</title>
<ellipse fill="white" stroke="black" cx="80.65" cy="-184" rx="59.41" ry="18"/>
<ellipse fill="none" stroke="black" cx="80.65" cy="-184" rx="63.41" ry="22"/>
<text text-anchor="middle" x="80.65" y="-181.5" font-family="Courier,monospace" font-size="10.00">secondary_date</text>
</g>
<!-- SITIO_secondary_date&#45;&#45;SITIO -->
<g id="edge6" class="edge">
<title>SITIO_secondary_date&#45;&#45;SITIO</title>
<path fill="none" stroke="black" d="M126.53,-199.39C157.85,-210.13 198.56,-224.09 224.69,-233.05"/>
</g>
<!-- SITIO_area -->
<g id="node8" class="node">
<title>SITIO_area</title>
<ellipse fill="white" stroke="black" cx="80.65" cy="-126" rx="27" ry="18"/>
<text text-anchor="middle" x="80.65" y="-123.5" font-family="Courier,monospace" font-size="10.00">area</text>
</g>
<!-- SITIO_area&#45;&#45;SITIO -->
<g id="edge7" class="edge">
<title>SITIO_area&#45;&#45;SITIO</title>
<path fill="none" stroke="black" d="M106.62,-131.34C122.99,-135.57 144.41,-142.54 161.29,-153 192.21,-172.16 220.67,-203.89 236.85,-223.84"/>
</g>
<!-- SITIO_transboundary -->
<g id="node9" class="node">
<title>SITIO_transboundary</title>
<ellipse fill="none" stroke="black" stroke-dasharray="5,2" cx="80.65" cy="-72" rx="55.85" ry="18"/>
<text text-anchor="middle" x="80.65" y="-69.5" font-family="Courier,monospace" font-size="10.00">transboundary</text>
</g>
<!-- SITIO_transboundary&#45;&#45;SITIO -->
<g id="edge8" class="edge">
<title>SITIO_transboundary&#45;&#45;SITIO</title>
<path fill="none" stroke="black" d="M127.75,-81.74C139.51,-85.74 151.56,-91.3 161.29,-99 204.25,-132.98 232.21,-193.62 244.15,-223.84"/>
</g>
<!-- SITIO_rev_bis -->
<g id="node10" class="node">
<title>SITIO_rev_bis</title>
<ellipse fill="white" stroke="black" cx="80.65" cy="-18" rx="41.59" ry="18"/>
<text text-anchor="middle" x="80.65" y="-15.5" font-family="Courier,monospace" font-size="10.00">rev_bis ?</text>
</g>
<!-- SITIO_rev_bis&#45;&#45;SITIO -->
<g id="edge9" class="edge">
<title>SITIO_rev_bis&#45;&#45;SITIO</title>
<path fill="none" stroke="black" d="M120.22,-24.36C134.49,-28.32 149.93,-34.71 161.29,-45 216.44,-94.91 239.82,-185.46 247.59,-223.93"/>
</g>
<!-- LOCALIZACAO -->
<g id="node11" class="node">
<title>LOCALIZACAO</title>
<polygon fill="white" stroke="black" points="293.29,-557 210.29,-557 210.29,-521 293.29,-521 293.29,-557"/>
<text text-anchor="middle" x="251.79" y="-536.5" font-family="Courier,monospace" font-size="10.00">LOCALIZACAO</text>
</g>
<!-- LOCALIZACAO_longitude -->
<g id="node12" class="node">
<title>LOCALIZACAO_longitude</title>
<ellipse fill="white" stroke="black" cx="80.65" cy="-566" rx="41.59" ry="18"/>
<text text-anchor="start" x="53.15" y="-564.5" font-family="Courier,monospace" text-decoration="underline" font-size="10.00">longitude</text>
</g>
<!-- LOCALIZACAO_longitude&#45;&#45;LOCALIZACAO -->
<g id="edge10" class="edge">
<title>LOCALIZACAO_longitude&#45;&#45;LOCALIZACAO</title>
<path fill="none" stroke="black" d="M120.03,-559.87C146.93,-555.58 182.83,-549.85 210.2,-545.48"/>
</g>
<!-- LOCALIZACAO_latitude -->
<g id="node13" class="node">
<title>LOCALIZACAO_latitude</title>
<ellipse fill="white" stroke="black" cx="80.65" cy="-512" rx="38.03" ry="18"/>
<text text-anchor="start" x="56.15" y="-510.5" font-family="Courier,monospace" text-decoration="underline" font-size="10.00">latitude</text>
</g>
<!-- LOCALIZACAO_latitude&#45;&#45;LOCALIZACAO -->
<g id="edge11" class="edge">
<title>LOCALIZACAO_latitude&#45;&#45;LOCALIZACAO</title>
<path fill="none" stroke="black" d="M117.11,-517.66C144.23,-521.99 181.67,-527.97 210.03,-532.49"/>
</g>
<!-- PAIS -->
<g id="node14" class="node">
<title>PAIS</title>
<polygon fill="white" stroke="black" points="278.79,-719 224.79,-719 224.79,-683 278.79,-683 278.79,-719"/>
<text text-anchor="middle" x="251.79" y="-698.5" font-family="Courier,monospace" font-size="10.00">PAIS</text>
</g>
<!-- PAIS_iso_code -->
<g id="node15" class="node">
<title>PAIS_iso_code</title>
<ellipse fill="white" stroke="black" cx="80.65" cy="-782" rx="38.03" ry="18"/>
<text text-anchor="start" x="56.15" y="-780.5" font-family="Courier,monospace" text-decoration="underline" font-size="10.00">iso_code</text>
</g>
<!-- PAIS_iso_code&#45;&#45;PAIS -->
<g id="edge12" class="edge">
<title>PAIS_iso_code&#45;&#45;PAIS</title>
<path fill="none" stroke="black" d="M113.66,-772.89C128.45,-768.24 146.07,-762.07 161.29,-755 183.51,-744.68 207.19,-730.23 224.6,-718.87"/>
</g>
<!-- PAIS_undp_code -->
<g id="node16" class="node">
<title>PAIS_undp_code</title>
<ellipse fill="white" stroke="black" cx="80.65" cy="-728" rx="41.59" ry="18"/>
<text text-anchor="middle" x="80.65" y="-725.5" font-family="Courier,monospace" font-size="10.00">undp_code</text>
</g>
<!-- PAIS_undp_code&#45;&#45;PAIS -->
<g id="edge13" class="edge">
<title>PAIS_undp_code&#45;&#45;PAIS</title>
<path fill="none" stroke="black" d="M120.03,-721.87C152,-716.77 196.67,-709.64 224.65,-705.17"/>
</g>
<!-- PAIS_states_name_en -->
<g id="node17" class="node">
<title>PAIS_states_name_en</title>
<ellipse fill="white" stroke="black" cx="80.65" cy="-674" rx="59.41" ry="18"/>
<text text-anchor="middle" x="80.65" y="-671.5" font-family="Courier,monospace" font-size="10.00">states_name_en</text>
</g>
<!-- PAIS_states_name_en&#45;&#45;PAIS -->
<g id="edge14" class="edge">
<title>PAIS_states_name_en&#45;&#45;PAIS</title>
<path fill="none" stroke="black" d="M133.78,-682.32C163.87,-687.12 200.42,-692.96 224.57,-696.81"/>
</g>
<!-- PAIS_region_en -->
<g id="node18" class="node">
<title>PAIS_region_en</title>
<ellipse fill="none" stroke="black" stroke-dasharray="5,2" cx="80.65" cy="-620" rx="41.59" ry="18"/>
<text text-anchor="middle" x="80.65" y="-617.5" font-family="Courier,monospace" font-size="10.00">region_en</text>
</g>
<!-- PAIS_region_en&#45;&#45;PAIS -->
<g id="edge15" class="edge">
<title>PAIS_region_en&#45;&#45;PAIS</title>
<path fill="none" stroke="black" d="M115.99,-629.85C130.28,-634.41 146.86,-640.3 161.29,-647 183.51,-657.32 207.19,-671.77 224.6,-683.13"/>
</g>
<!-- CRITERIO -->
<g id="node19" class="node">
<title>CRITERIO</title>
<polygon fill="white" stroke="black" points="284.29,-881 219.29,-881 219.29,-845 284.29,-845 284.29,-881"/>
<text text-anchor="middle" x="251.79" y="-860.5" font-family="Courier,monospace" font-size="10.00">CRITERIO</text>
</g>
<!-- CRITERIO_id_criterio -->
<g id="node20" class="node">
<title>CRITERIO_id_criterio</title>
<ellipse fill="white" stroke="black" cx="80.65" cy="-890" rx="48.72" ry="18"/>
<text text-anchor="start" x="47.15" y="-888.5" font-family="Courier,monospace" text-decoration="underline" font-size="10.00">id_criterio</text>
</g>
<!-- CRITERIO_id_criterio&#45;&#45;CRITERIO -->
<g id="edge16" class="edge">
<title>CRITERIO_id_criterio&#45;&#45;CRITERIO</title>
<path fill="none" stroke="black" d="M125.65,-882.98C154.91,-878.3 192.68,-872.28 219.03,-868.07"/>
</g>
<!-- CRITERIO_descricao_criterio -->
<g id="node21" class="node">
<title>CRITERIO_descricao_criterio</title>
<ellipse fill="white" stroke="black" cx="80.65" cy="-836" rx="73.67" ry="18"/>
<text text-anchor="middle" x="80.65" y="-833.5" font-family="Courier,monospace" font-size="10.00">descricao_criterio</text>
</g>
<!-- CRITERIO_descricao_criterio&#45;&#45;CRITERIO -->
<g id="edge17" class="edge">
<title>CRITERIO_descricao_criterio&#45;&#45;CRITERIO</title>
<path fill="none" stroke="black" d="M142.71,-845.75C168.64,-849.89 197.77,-854.54 219.25,-857.97"/>
</g>
<!-- CATEGORIA -->
<g id="node22" class="node">
<title>CATEGORIA</title>
<polygon fill="white" stroke="black" points="287.29,-989 216.29,-989 216.29,-953 287.29,-953 287.29,-989"/>
<text text-anchor="middle" x="251.79" y="-968.5" font-family="Courier,monospace" font-size="10.00">CATEGORIA</text>
</g>
<!-- CATEGORIA_category_short -->
<g id="node23" class="node">
<title>CATEGORIA_category_short</title>
<ellipse fill="white" stroke="black" cx="80.65" cy="-998" rx="59.41" ry="18"/>
<text text-anchor="start" x="38.15" y="-996.5" font-family="Courier,monospace" text-decoration="underline" font-size="10.00">category_short</text>
</g>
<!-- CATEGORIA_category_short&#45;&#45;CATEGORIA -->
<g id="edge18" class="edge">
<title>CATEGORIA_category_short&#45;&#45;CATEGORIA</title>
<path fill="none" stroke="black" d="M133.78,-989.68C160.57,-985.4 192.48,-980.31 216.2,-976.52"/>
</g>
<!-- CATEGORIA_category -->
<g id="node24" class="node">
<title>CATEGORIA_category</title>
<ellipse fill="white" stroke="black" cx="80.65" cy="-944" rx="38.03" ry="18"/>
<text text-anchor="middle" x="80.65" y="-941.5" font-family="Courier,monospace" font-size="10.00">category</text>
</g>
<!-- CATEGORIA_category&#45;&#45;CATEGORIA -->
<g id="edge19" class="edge">
<title>CATEGORIA_category&#45;&#45;CATEGORIA</title>
<path fill="none" stroke="black" d="M117.11,-949.66C146.26,-954.31 187.34,-960.87 216.25,-965.49"/>
</g>
<!-- PERIODO_PERIGO -->
<g id="node25" class="node">
<title>PERIODO_PERIGO</title>
<polygon fill="white" stroke="black" points="302.29,-1124 201.29,-1124 201.29,-1088 302.29,-1088 302.29,-1124"/>
<polygon fill="none" stroke="black" points="306.29,-1128 197.29,-1128 197.29,-1084 306.29,-1084 306.29,-1128"/>
<text text-anchor="middle" x="251.79" y="-1103.5" font-family="Courier,monospace" font-size="10.00">PERIODO_PERIGO</text>
</g>
<!-- PERIODO_PERIGO_id_perigo -->
<g id="node26" class="node">
<title>PERIODO_PERIGO_id_perigo</title>
<ellipse fill="white" stroke="black" cx="80.65" cy="-1160" rx="41.59" ry="18"/>
<text text-anchor="start" x="53.15" y="-1158.5" font-family="Courier,monospace" text-decoration="underline" font-size="10.00">id_perigo</text>
</g>
<!-- PERIODO_PERIGO_id_perigo&#45;&#45;PERIODO_PERIGO -->
<g id="edge20" class="edge">
<title>PERIODO_PERIGO_id_perigo&#45;&#45;PERIODO_PERIGO</title>
<path fill="none" stroke="black" d="M114.66,-1149.46C138.12,-1141.97 170.14,-1131.75 197.23,-1123.1"/>
</g>
<!-- PERIODO_PERIGO_data_inicio -->
<g id="node27" class="node">
<title>PERIODO_PERIGO_data_inicio</title>
<ellipse fill="white" stroke="black" cx="80.65" cy="-1106" rx="48.72" ry="18"/>
<text text-anchor="middle" x="80.65" y="-1103.5" font-family="Courier,monospace" font-size="10.00">data_inicio</text>
</g>
<!-- PERIODO_PERIGO_data_inicio&#45;&#45;PERIODO_PERIGO -->
<g id="edge21" class="edge">
<title>PERIODO_PERIGO_data_inicio&#45;&#45;PERIODO_PERIGO</title>
<path fill="none" stroke="black" d="M129.67,-1106C150.66,-1106 175.39,-1106 197,-1106"/>
</g>
<!-- PERIODO_PERIGO_data_fim -->
<g id="node28" class="node">
<title>PERIODO_PERIGO_data_fim</title>
<ellipse fill="white" stroke="black" cx="80.65" cy="-1052" rx="45.15" ry="18"/>
<text text-anchor="middle" x="80.65" y="-1049.5" font-family="Courier,monospace" font-size="10.00">data_fim ?</text>
</g>
<!-- PERIODO_PERIGO_data_fim&#45;&#45;PERIODO_PERIGO -->
<g id="edge22" class="edge">
<title>PERIODO_PERIGO_data_fim&#45;&#45;PERIODO_PERIGO</title>
<path fill="none" stroke="black" d="M116.69,-1063.19C139.92,-1070.6 170.83,-1080.47 197.13,-1088.87"/>
</g>
</g>
</svg>
