<?xml version="1.0" encoding="UTF-8" standalone="no"?>
<!DOCTYPE svg PUBLIC "-//W3C//DTD SVG 1.1//EN"
 "http://www.w3.org/Graphics/SVG/1.1/DTD/svg11.dtd">
<!-- Generated by graphviz version 2.43.0 (0)
 -->
<!-- Title: %3 Pages: 1 -->
<svg width="332pt" height="1186pt"
 viewBox="0.00 0.00 332.29 1186.00" xmlns="http://www.w3.org/2000/svg" xmlns:xlink="http://www.w3.org/1999/xlink">
<g id="graph0" class="graph" transform="scale(1 1) rotate(0) translate(4 1182)">
<title>%3</title>
<polygon fill="white" stroke="transparent" points="-4,4 -4,-1182 328.29,-1182 328.29,4 -4,4"/>
<!-- SITIO -->
<g id="node1" class="node">
<title>SITIO</title>
<polygon fill="white" stroke="black" points="287.79,-260 233.79,-260 233.79,-224 287.79,-224 287.79,-260"/>
<text text-anchor="middle" x="260.79" y="-239.5" font-family="Courier,monospace" font-size="10.00">SITIO</text>
</g>
<!-- SITIO_id_number -->
<g id="node2" class="node">
<title>SITIO_id_number</title>
<ellipse fill="white" stroke="black" cx="80.65" cy="-458" rx="41.59" ry="18"/>
<text text-anchor="start" x="53.15" y="-456.5" font-family="Courier,monospace" text-decoration="underline" font-size="10.00">id_number</text>
</g>
<!-- SITIO_id_number&#45;&#45;SITIO -->
<g id="edge1" class="edge">
<title>SITIO_id_number&#45;&#45;SITIO</title>
<path fill="none" stroke="black" d="M119.94,-451.31C134.16,-447.31 149.65,-440.98 161.29,-431 216.5,-383.68 244.99,-297.65 255.25,-260.22"/>
</g>
<!-- SITIO_unnique_number -->
<g id="node3" class="node">
<title>SITIO_unnique_number</title>
<ellipse fill="white" stroke="black" cx="80.65" cy="-404" rx="59.41" ry="18"/>
<text text-anchor="middle" x="80.65" y="-401.5" font-family="Courier,monospace" font-size="10.00">unnique_number</text>
</g>
<!-- SITIO_unnique_number&#45;&#45;SITIO -->
<g id="edge2" class="edge">
<title>SITIO_unnique_number&#45;&#45;SITIO</title>
<path fill="none" stroke="black" d="M128.64,-393.36C140.01,-389.41 151.65,-384.09 161.29,-377 204.55,-345.22 236.73,-288.87 251.25,-260.06"/>
</g>
<!-- SITIO_name_en -->
<g id="node4" class="node">
<title>SITIO_name_en</title>
<ellipse fill="white" stroke="black" cx="80.65" cy="-350" rx="34.96" ry="18"/>
<text text-anchor="middle" x="80.65" y="-347.5" font-family="Courier,monospace" font-size="10.00">name_en</text>
</g>
<!-- SITIO_name_en&#45;&#45;SITIO -->
<g id="edge3" class="edge">
<title>SITIO_name_en&#45;&#45;SITIO</title>
<path fill="none" stroke="black" d="M112.23,-342.45C127.52,-337.98 145.98,-331.52 161.29,-323 192.45,-305.68 223.37,-278.1 242.04,-260.03"/>
</g>
<!-- SITIO_short_description_en -->
<g id="node5" class="node">
<title>SITIO_short_description_en</title>
<ellipse fill="white" stroke="black" cx="80.65" cy="-296" rx="80.79" ry="18"/>
<text text-anchor="middle" x="80.65" y="-293.5" font-family="Courier,monospace" font-size="10.00">short_description_en</text>
</g>
<!-- SITIO_short_description_en&#45;&#45;SITIO -->
<g id="edge4" class="edge">
<title>SITIO_short_description_en&#45;&#45;SITIO</title>
<path fill="none" stroke="black" d="M129.39,-281.53C162.88,-271.38 206.4,-258.18 233.72,-249.9"/>
</g>
<!-- SITIO_date_inscribed -->
<g id="node6" class="node">
<title>SITIO_date_inscribed</title>
<ellipse fill="white" stroke="black" cx="80.65" cy="-242" rx="59.41" ry="18"/>
<text text-anchor="middle" x="80.65" y="-239.5" font-family="Courier,monospace" font-size="10.00">date_inscribed</text>
</g>
<!-- SITIO_date_inscribed&#45;&#45;SITIO -->
<g id="edge5" class="edge">
<title>SITIO_date_inscribed&#45;&#45;SITIO</title>
<path fill="none" stroke="black" d="M140.47,-242C171.89,-242 209.01,-242 233.4,-242"/>
</g>
<!-- SITIO_secondary_date -->
<g id="node7" class="node">
<title>SITIO_secondary_date</title>
<ellipse fill="white" stroke="black" cx="80.65" cy="-184" rx="59.41" ry="18"/>
<ellipse fill="none" stroke="black" cx="80.65" cy="-184" rx="63.41" ry="22"/>
<text text-anchor="middle" x="80.65" y="-181.5" font-family="Courier,monospace" font-size="10.00">secondary_date</text>
</g>
<!-- SITIO_secondary_date&#45;&#45;SITIO -->
<g id="edge6" class="edge">
<title>SITIO_secondary_date&#45;&#45;SITIO</title>
<path fill="none" stroke="black" d="M127.52,-198.94C161.24,-209.91 205.84,-224.43 233.67,-233.49"/>
</g>
<!-- SITIO_area -->
<g id="node8" class="node">
<title>SITIO_area</title>
<ellipse fill="white" stroke="black" cx="80.65" cy="-126" rx="27" ry="18"/>
<text text-anchor="middle" x="80.65" y="-123.5" font-family="Courier,monospace" font-size="10.00">area</text>
</g>
<!-- SITIO_area&#45;&#45;SITIO -->
<g id="edge7" class="edge">
<title>SITIO_area&#45;&#45;SITIO</title>
<path fill="none" stroke="black" d="M106.45,-131.61C122.76,-135.96 144.17,-142.95 161.29,-153 194.29,-172.37 225.91,-204.04 244.06,-223.92"/>
</g>
<!-- SITIO_transboundary -->
<g id="node9" class="node">
<title>SITIO_transboundary</title>
<ellipse fill="none" stroke="black" stroke-dasharray="5,2" cx="80.65" cy="-72" rx="55.85" ry="18"/>
<text text-anchor="middle" x="80.65" y="-69.5" font-family="Courier,monospace" font-size="10.00">transboundary</text>
</g>
<!-- SITIO_transboundary&#45;&#45;SITIO -->
<g id="edge8" class="edge">
<title>SITIO_transboundary&#45;&#45;SITIO</title>
<path fill="none" stroke="black" d="M127.53,-82.03C139.29,-86.03 151.39,-91.52 161.29,-99 206.27,-132.99 238.09,-193.63 251.99,-223.84"/>
</g>
<!-- SITIO_rev_bis -->
<g id="node10" class="node">
<title>SITIO_rev_bis</title>
<ellipse fill="white" stroke="black" cx="80.65" cy="-18" rx="41.59" ry="18"/>
<text text-anchor="middle" x="80.65" y="-15.5" font-family="Courier,monospace" font-size="10.00">rev_bis ?</text>
</g>
<!-- SITIO_rev_bis&#45;&#45;SITIO -->
<g id="edge9" class="edge">
<title>SITIO_rev_bis&#45;&#45;SITIO</title>
<path fill="none" stroke="black" d="M120.03,-24.58C134.26,-28.57 149.74,-34.93 161.29,-45 218.36,-94.75 246.08,-185.39 255.7,-223.91"/>
</g>
<!-- LOCALIZACAO -->
<g id="node11" class="node">
<title>LOCALIZACAO</title>
<polygon fill="white" stroke="black" points="302.29,-557 219.29,-557 219.29,-521 302.29,-521 302.29,-557"/>
<text text-anchor="middle" x="260.79" y="-536.5" font-family="Courier,monospace" font-size="10.00">LOCALIZACAO</text>
</g>
<!-- LOCALIZACAO_longitude -->
<g id="node12" class="node">
<title>LOCALIZACAO_longitude</title>
<ellipse fill="white" stroke="black" cx="80.65" cy="-566" rx="41.59" ry="18"/>
<text text-anchor="start" x="53.15" y="-564.5" font-family="Courier,monospace" text-decoration="underline" font-size="10.00">longitude</text>
</g>
<!-- LOCALIZACAO_longitude&#45;&#45;LOCALIZACAO -->
<g id="edge10" class="edge">
<title>LOCALIZACAO_longitude&#45;&#45;LOCALIZACAO</title>
<path fill="none" stroke="black" d="M120.3,-560.14C149.47,-555.72 189.38,-549.67 219.05,-545.18"/>
</g>
<!-- LOCALIZACAO_latitude -->
<g id="node13" class="node">
<title>LOCALIZACAO_latitude</title>
<ellipse fill="white" stroke="black" cx="80.65" cy="-512" rx="38.03" ry="18"/>
<text text-anchor="start" x="56.15" y="-510.5" font-family="Courier,monospace" text-decoration="underline" font-size="10.00">latitude</text>
</g>
<!-- LOCALIZACAO_latitude&#45;&#45;LOCALIZACAO -->
<g id="edge11" class="edge">
<title>LOCALIZACAO_latitude&#45;&#45;LOCALIZACAO</title>
<path fill="none" stroke="black" d="M117.27,-517.4C146.72,-521.86 188.53,-528.2 219.25,-532.86"/>
</g>
<!-- PAIS -->
<g id="node14" class="node">
<title>PAIS</title>
<polygon fill="white" stroke="black" points="287.79,-719 233.79,-719 233.79,-683 287.79,-683 287.79,-719"/>
<text text-anchor="middle" x="260.79" y="-698.5" font-family="Courier,monospace" font-size="10.00">PAIS</text>
</g>
<!-- PAIS_iso_code -->
<g id="node15" class="node">
<title>PAIS_iso_code</title>
<ellipse fill="white" stroke="black" cx="80.65" cy="-782" rx="38.03" ry="18"/>
<text text-anchor="start" x="56.15" y="-780.5" font-family="Courier,monospace" text-decoration="underline" font-size="10.00">iso_code</text>
</g>
<!-- PAIS_iso_code&#45;&#45;PAIS -->
<g id="edge12" class="edge">
<title>PAIS_iso_code&#45;&#45;PAIS</title>
<path fill="none" stroke="black" d="M113.53,-772.6C128.29,-767.89 145.92,-761.76 161.29,-755 186.65,-743.86 214.18,-728.46 233.67,-716.96"/>
</g>
<!-- PAIS_undp_code -->
<g id="node16" class="node">
<title>PAIS_undp_code</title>
<ellipse fill="white" stroke="black" cx="80.65" cy="-728" rx="41.59" ry="18"/>
<text text-anchor="middle" x="80.65" y="-725.5" font-family="Courier,monospace" font-size="10.00">undp_code</text>
</g>
<!-- PAIS_undp_code&#45;&#45;PAIS -->
<g id="edge13" class="edge">
<title>PAIS_undp_code&#45;&#45;PAIS</title>
<path fill="none" stroke="black" d="M120.3,-722.14C154.58,-716.95 203.72,-709.5 233.6,-704.97"/>
</g>
<!-- PAIS_states_name_en -->
<g id="node17" class="node">
<title>PAIS_states_name_en</title>
<ellipse fill="white" stroke="black" cx="80.65" cy="-674" rx="59.41" ry="18"/>
<text text-anchor="middle" x="80.65" y="-671.5" font-family="Courier,monospace" font-size="10.00">states_name_en</text>
</g>
<!-- PAIS_states_name_en&#45;&#45;PAIS -->
<g id="edge14" class="edge">
<title>PAIS_states_name_en&#45;&#45;PAIS</title>
<path fill="none" stroke="black" d="M134.13,-681.95C166.77,-686.9 207.34,-693.05 233.4,-697"/>
</g>
<!-- PAIS_region_en -->
<g id="node18" class="node">
<title>PAIS_region_en</title>
<ellipse fill="white" stroke="black" cx="80.65" cy="-620" rx="41.59" ry="18"/>
<text text-anchor="middle" x="80.65" y="-617.5" font-family="Courier,monospace" font-size="10.00">region_en</text>
</g>
<!-- PAIS_region_en&#45;&#45;PAIS -->
<g id="edge15" class="edge">
<title>PAIS_region_en&#45;&#45;PAIS</title>
<path fill="none" stroke="black" d="M115.47,-630.02C129.82,-634.64 146.59,-640.54 161.29,-647 186.65,-658.14 214.18,-673.54 233.67,-685.04"/>
</g>
<!-- CRITERIO -->
<g id="node19" class="node">
<title>CRITERIO</title>
<polygon fill="white" stroke="black" points="293.29,-881 228.29,-881 228.29,-845 293.29,-845 293.29,-881"/>
<text text-anchor="middle" x="260.79" y="-860.5" font-family="Courier,monospace" font-size="10.00">CRITERIO</text>
</g>
<!-- CRITERIO_id_criterio -->
<g id="node20" class="node">
<title>CRITERIO_id_criterio</title>
<ellipse fill="white" stroke="black" cx="80.65" cy="-890" rx="48.72" ry="18"/>
<text text-anchor="start" x="47.15" y="-888.5" font-family="Courier,monospace" text-decoration="underline" font-size="10.00">id_criterio</text>
</g>
<!-- CRITERIO_id_criterio&#45;&#45;CRITERIO -->
<g id="edge16" class="edge">
<title>CRITERIO_id_criterio&#45;&#45;CRITERIO</title>
<path fill="none" stroke="black" d="M126.14,-883.26C157.88,-878.45 199.8,-872.09 228.17,-867.79"/>
</g>
<!-- CRITERIO_descricao_criterio -->
<g id="node21" class="node">
<title>CRITERIO_descricao_criterio</title>
<ellipse fill="white" stroke="black" cx="80.65" cy="-836" rx="73.67" ry="18"/>
<text text-anchor="middle" x="80.65" y="-833.5" font-family="Courier,monospace" font-size="10.00">descricao_criterio</text>
</g>
<!-- CRITERIO_descricao_criterio&#45;&#45;CRITERIO -->
<g id="edge17" class="edge">
<title>CRITERIO_descricao_criterio&#45;&#45;CRITERIO</title>
<path fill="none" stroke="black" d="M143.95,-845.44C172.45,-849.76 204.97,-854.69 228.29,-858.23"/>
</g>
<!-- CATEGORIA -->
<g id="node22" class="node">
<title>CATEGORIA</title>
<polygon fill="white" stroke="black" points="296.29,-989 225.29,-989 225.29,-953 296.29,-953 296.29,-989"/>
<text text-anchor="middle" x="260.79" y="-968.5" font-family="Courier,monospace" font-size="10.00">CATEGORIA</text>
</g>
<!-- CATEGORIA_category_short -->
<g id="node23" class="node">
<title>CATEGORIA_category_short</title>
<ellipse fill="white" stroke="black" cx="80.65" cy="-998" rx="59.41" ry="18"/>
<text text-anchor="start" x="38.15" y="-996.5" font-family="Courier,monospace" text-decoration="underline" font-size="10.00">category_short</text>
</g>
<!-- CATEGORIA_category_short&#45;&#45;CATEGORIA -->
<g id="edge18" class="edge">
<title>CATEGORIA_category_short&#45;&#45;CATEGORIA</title>
<path fill="none" stroke="black" d="M134.13,-990.05C163.49,-985.6 199.26,-980.18 225.11,-976.26"/>
</g>
<!-- CATEGORIA_category -->
<g id="node24" class="node">
<title>CATEGORIA_category</title>
<ellipse fill="white" stroke="black" cx="80.65" cy="-944" rx="38.03" ry="18"/>
<text text-anchor="middle" x="80.65" y="-941.5" font-family="Courier,monospace" font-size="10.00">category</text>
</g>
<!-- CATEGORIA_category&#45;&#45;CATEGORIA -->
<g id="edge19" class="edge">
<title>CATEGORIA_category&#45;&#45;CATEGORIA</title>
<path fill="none" stroke="black" d="M117.27,-949.4C148.64,-954.15 194.06,-961.04 225.14,-965.75"/>
</g>
<!-- PERIODO_DE_PERIGO -->
<g id="node25" class="node">
<title>PERIODO_DE_PERIGO</title>
<polygon fill="white" stroke="black" points="320.29,-1124 201.29,-1124 201.29,-1088 320.29,-1088 320.29,-1124"/>
<polygon fill="none" stroke="black" points="324.29,-1128 197.29,-1128 197.29,-1084 324.29,-1084 324.29,-1128"/>
<text text-anchor="middle" x="260.79" y="-1103.5" font-family="Courier,monospace" font-size="10.00">PERIODO_DE_PERIGO</text>
</g>
<!-- PERIODO_DE_PERIGO_id_perigo -->
<g id="node26" class="node">
<title>PERIODO_DE_PERIGO_id_perigo</title>
<ellipse fill="white" stroke="black" cx="80.65" cy="-1160" rx="41.59" ry="18"/>
<text text-anchor="start" x="53.15" y="-1158.5" font-family="Courier,monospace" text-decoration="underline" font-size="10.00">id_perigo</text>
</g>
<!-- PERIODO_DE_PERIGO_id_perigo&#45;&#45;PERIODO_DE_PERIGO -->
<g id="edge20" class="edge">
<title>PERIODO_DE_PERIGO_id_perigo&#45;&#45;PERIODO_DE_PERIGO</title>
<path fill="none" stroke="black" d="M115.15,-1149.84C138.24,-1142.85 169.6,-1133.34 197.23,-1124.96"/>
</g>
<!-- PERIODO_DE_PERIGO_data_inicio -->
<g id="node27" class="node">
<title>PERIODO_DE_PERIGO_data_inicio</title>
<ellipse fill="white" stroke="black" cx="80.65" cy="-1106" rx="48.72" ry="18"/>
<text text-anchor="middle" x="80.65" y="-1103.5" font-family="Courier,monospace" font-size="10.00">data_inicio</text>
</g>
<!-- PERIODO_DE_PERIGO_data_inicio&#45;&#45;PERIODO_DE_PERIGO -->
<g id="edge21" class="edge">
<title>PERIODO_DE_PERIGO_data_inicio&#45;&#45;PERIODO_DE_PERIGO</title>
<path fill="none" stroke="black" d="M129.86,-1106C150.57,-1106 175.04,-1106 197.14,-1106"/>
</g>
<!-- PERIODO_DE_PERIGO_data_fim -->
<g id="node28" class="node">
<title>PERIODO_DE_PERIGO_data_fim</title>
<ellipse fill="white" stroke="black" cx="80.65" cy="-1052" rx="38.03" ry="18"/>
<text text-anchor="middle" x="80.65" y="-1049.5" font-family="Courier,monospace" font-size="10.00">data_fim</text>
</g>
<!-- PERIODO_DE_PERIGO_data_fim&#45;&#45;PERIODO_DE_PERIGO -->
<g id="edge22" class="edge">
<title>PERIODO_DE_PERIGO_data_fim&#45;&#45;PERIODO_DE_PERIGO</title>
<path fill="none" stroke="black" d="M113.5,-1061.65C136.71,-1068.69 168.93,-1078.46 197.22,-1087.03"/>
</g>
</g>
</svg>
