<?xml version="1.0" encoding="UTF-8" standalone="no"?>
<!DOCTYPE svg PUBLIC "-//W3C//DTD SVG 1.1//EN"
 "http://www.w3.org/Graphics/SVG/1.1/DTD/svg11.dtd">
<!-- Generated by graphviz version 2.43.0 (0)
 -->
<!-- Title: %3 Pages: 1 -->
<svg width="1097pt" height="260pt"
 viewBox="0.00 0.00 1096.91 260.00" xmlns="http://www.w3.org/2000/svg" xmlns:xlink="http://www.w3.org/1999/xlink">
<g id="graph0" class="graph" transform="scale(1 1) rotate(0) translate(4 256)">
<title>%3</title>
<polygon fill="white" stroke="transparent" points="-4,4 -4,-256 1092.91,-256 1092.91,4 -4,4"/>
<!-- SITIO -->
<g id="node1" class="node">
<title>SITIO</title>
<polygon fill="white" stroke="black" points="86.45,-144 32.45,-144 32.45,-108 86.45,-108 86.45,-144"/>
<text text-anchor="middle" x="59.45" y="-123.5" font-family="Courier,monospace" font-size="10.00">SITIO</text>
</g>
<!-- LOCALIZADO_EM -->
<g id="node6" class="node">
<title>LOCALIZADO_EM</title>
<polygon fill="white" stroke="black" points="277.27,-144 198.09,-126 277.27,-108 356.44,-126 277.27,-144"/>
<text text-anchor="middle" x="277.27" y="-123.5" font-family="Courier,monospace" font-size="10.00">LOCALIZADO_EM</text>
</g>
<!-- SITIO&#45;&#45;LOCALIZADO_EM -->
<g id="edge1" class="edge">
<title>SITIO&#45;&#45;LOCALIZADO_EM</title>
<path fill="none" stroke="black" d="M86.49,-124C114.07,-124 158.95,-124 198.15,-124"/>
<path fill="none" stroke="transparent" d="M86.49,-126C114.07,-126 158.95,-126 198.15,-126"/>
<path fill="none" stroke="black" d="M86.49,-128C114.07,-128 158.95,-128 198.15,-128"/>
<text text-anchor="middle" x="140.41" y="-129" font-family="Courier,monospace" font-size="10.00">1</text>
</g>
<!-- FICA_EM -->
<g id="node7" class="node">
<title>FICA_EM</title>
<polygon fill="white" stroke="black" points="277.27,-90 228.03,-72 277.27,-54 326.5,-72 277.27,-90"/>
<text text-anchor="middle" x="277.27" y="-69.5" font-family="Courier,monospace" font-size="10.00">FICA_EM</text>
</g>
<!-- SITIO&#45;&#45;FICA_EM -->
<g id="edge3" class="edge">
<title>SITIO&#45;&#45;FICA_EM</title>
<path fill="none" stroke="black" d="M86.15,-116.87C106.62,-111.31 135.76,-103.5 161.42,-97.06 189.94,-89.9 222.57,-82.25 245.66,-76.93"/>
<path fill="none" stroke="transparent" d="M86.68,-118.8C107.13,-113.24 136.28,-105.44 161.91,-99 190.4,-91.85 223.02,-84.2 246.11,-78.87"/>
<path fill="none" stroke="black" d="M87.2,-120.73C107.65,-115.17 136.79,-107.37 162.4,-100.94 190.86,-93.79 223.48,-86.15 246.56,-80.82"/>
<text text-anchor="middle" x="140.41" y="-107" font-family="Courier,monospace" font-size="10.00">M</text>
</g>
<!-- TEM_CRITERIO -->
<g id="node8" class="node">
<title>TEM_CRITERIO</title>
<polygon fill="white" stroke="black" points="277.27,-36 203.08,-18 277.27,0 351.45,-18 277.27,-36"/>
<text text-anchor="middle" x="277.27" y="-15.5" font-family="Courier,monospace" font-size="10.00">TEM_CRITERIO</text>
</g>
<!-- SITIO&#45;&#45;TEM_CRITERIO -->
<g id="edge5" class="edge">
<title>SITIO&#45;&#45;TEM_CRITERIO</title>
<path fill="none" stroke="black" d="M76.77,-106.29C95.85,-87.67 127.75,-59.48 161.03,-43.2 182.32,-32.89 207.28,-26.42 228.67,-22.35"/>
<path fill="none" stroke="transparent" d="M78.17,-107.72C97.17,-89.17 129.08,-60.97 161.91,-45 182.82,-34.83 207.79,-28.36 229.05,-24.32"/>
<path fill="none" stroke="black" d="M79.56,-109.15C98.49,-90.67 130.4,-62.47 162.78,-46.8 183.32,-36.76 208.29,-30.3 229.42,-26.28"/>
<text text-anchor="middle" x="140.41" y="-63" font-family="Courier,monospace" font-size="10.00">M</text>
</g>
<!-- TEM_CATEGORIA_SITIO -->
<g id="node11" class="node">
<title>TEM_CATEGORIA_SITIO</title>
<polygon fill="white" stroke="black" points="519.68,-252 410.57,-234 519.68,-216 628.79,-234 519.68,-252"/>
<text text-anchor="middle" x="519.68" y="-231.5" font-family="Courier,monospace" font-size="10.00">TEM_CATEGORIA_SITIO</text>
</g>
<!-- SITIO&#45;&#45;TEM_CATEGORIA_SITIO -->
<g id="edge10" class="edge">
<title>SITIO&#45;&#45;TEM_CATEGORIA_SITIO</title>
<path fill="none" stroke="black" d="M76.16,-143.02C93.83,-164.28 126.47,-198.6 162.66,-213.15 260.5,-253.17 387.35,-247.99 460.04,-240.24"/>
<path fill="none" stroke="transparent" d="M74.62,-144.3C92.38,-165.66 125.02,-199.98 161.91,-215 260.58,-255.17 387.44,-249.99 460.25,-242.23"/>
<path fill="none" stroke="black" d="M73.08,-145.58C90.93,-167.04 123.57,-201.36 161.16,-216.85 260.66,-257.17 387.52,-251.99 460.46,-244.22"/>
<text text-anchor="middle" x="140.41" y="-208" font-family="Courier,monospace" font-size="10.00">N</text>
</g>
<!-- ESTEVE_EM_PERIGO -->
<g id="node13" class="node">
<title>ESTEVE_EM_PERIGO</title>
<polygon fill="white" stroke="black" points="277.27,-202.06 183.31,-184 277.27,-165.94 371.22,-184 277.27,-202.06"/>
<polygon fill="none" stroke="black" points="277.27,-206.15 162.05,-184 277.27,-161.85 392.48,-184 277.27,-206.15"/>
<text text-anchor="middle" x="277.27" y="-181.5" font-family="Courier,monospace" font-size="10.00">ESTEVE_EM_PERIGO</text>
</g>
<!-- SITIO&#45;&#45;ESTEVE_EM_PERIGO -->
<g id="edge12" class="edge">
<title>SITIO&#45;&#45;ESTEVE_EM_PERIGO</title>
<path fill="none" stroke="black" d="M86.49,-133C121.58,-142.43 184.69,-159.39 228.45,-171.15"/>
<text text-anchor="middle" x="140.41" y="-151" font-family="Courier,monospace" font-size="10.00">1</text>
</g>
<!-- LOCALIZACAO -->
<g id="node2" class="node">
<title>LOCALIZACAO</title>
<polygon fill="white" stroke="black" points="751.74,-144 668.74,-144 668.74,-108 751.74,-108 751.74,-144"/>
<text text-anchor="middle" x="710.24" y="-123.5" font-family="Courier,monospace" font-size="10.00">LOCALIZACAO</text>
</g>
<!-- PAIS -->
<g id="node3" class="node">
<title>PAIS</title>
<polygon fill="white" stroke="black" points="737.24,-90 683.24,-90 683.24,-54 737.24,-54 737.24,-90"/>
<text text-anchor="middle" x="710.24" y="-69.5" font-family="Courier,monospace" font-size="10.00">PAIS</text>
</g>
<!-- CRITERIO -->
<g id="node4" class="node">
<title>CRITERIO</title>
<polygon fill="white" stroke="black" points="742.74,-36 677.74,-36 677.74,0 742.74,0 742.74,-36"/>
<text text-anchor="middle" x="710.24" y="-15.5" font-family="Courier,monospace" font-size="10.00">CRITERIO</text>
</g>
<!-- TEM_CATEGORIA -->
<g id="node10" class="node">
<title>TEM_CATEGORIA</title>
<polygon fill="white" stroke="black" points="895.82,-164 816.65,-146 895.82,-128 975,-146 895.82,-164"/>
<text text-anchor="middle" x="895.82" y="-143.5" font-family="Courier,monospace" font-size="10.00">TEM_CATEGORIA</text>
</g>
<!-- CRITERIO&#45;&#45;TEM_CATEGORIA -->
<g id="edge8" class="edge">
<title>CRITERIO&#45;&#45;TEM_CATEGORIA</title>
<path fill="none" stroke="black" d="M743.73,-27.78C753.95,-32.07 765.03,-37.31 774.78,-43.3 817.06,-69.35 859.87,-108.79 881.64,-129.97"/>
<path fill="none" stroke="transparent" d="M742.95,-29.62C753.1,-33.88 764.17,-39.12 773.74,-45 815.71,-70.82 858.52,-110.26 880.24,-131.41"/>
<path fill="none" stroke="black" d="M742.18,-31.47C752.24,-35.69 763.32,-40.92 772.69,-46.7 814.35,-72.29 857.16,-111.73 878.85,-132.84"/>
<text text-anchor="middle" x="795.24" y="-65" font-family="Courier,monospace" font-size="10.00">N</text>
</g>
<!-- CATEGORIA -->
<g id="node5" class="node">
<title>CATEGORIA</title>
<polygon fill="white" stroke="black" points="1088.91,-229 1017.91,-229 1017.91,-193 1088.91,-193 1088.91,-229"/>
<text text-anchor="middle" x="1053.41" y="-208.5" font-family="Courier,monospace" font-size="10.00">CATEGORIA</text>
</g>
<!-- LOCALIZADO_EM&#45;&#45;LOCALIZACAO -->
<g id="edge2" class="edge">
<title>LOCALIZADO_EM&#45;&#45;LOCALIZACAO</title>
<path fill="none" stroke="black" d="M356.56,-124C448.41,-124 597.2,-124 668.54,-124"/>
<path fill="none" stroke="transparent" d="M356.56,-126C448.41,-126 597.2,-126 668.54,-126"/>
<path fill="none" stroke="black" d="M356.56,-128C448.41,-128 597.2,-128 668.54,-128"/>
<text text-anchor="middle" x="519.68" y="-129" font-family="Courier,monospace" font-size="10.00">1</text>
</g>
<!-- FICA_EM&#45;&#45;PAIS -->
<g id="edge4" class="edge">
<title>FICA_EM&#45;&#45;PAIS</title>
<path fill="none" stroke="black" d="M326.45,-72C417.6,-72 612.47,-72 683.04,-72"/>
<text text-anchor="middle" x="519.68" y="-75" font-family="Courier,monospace" font-size="10.00">N</text>
</g>
<!-- TEM_CRITERIO&#45;&#45;CRITERIO -->
<g id="edge6" class="edge">
<title>TEM_CRITERIO&#45;&#45;CRITERIO</title>
<path fill="none" stroke="black" d="M351.37,-16C446.71,-16 609.36,-16 677.61,-16"/>
<path fill="none" stroke="transparent" d="M351.37,-18C446.71,-18 609.36,-18 677.61,-18"/>
<path fill="none" stroke="black" d="M351.37,-20C446.71,-20 609.36,-20 677.61,-20"/>
<text text-anchor="middle" x="519.68" y="-21" font-family="Courier,monospace" font-size="10.00">N</text>
</g>
<!-- TEM_CRITERIO_justificacao -->
<g id="node9" class="node">
<title>TEM_CRITERIO_justificacao</title>
<ellipse fill="white" stroke="black" cx="59.45" cy="-18" rx="59.41" ry="18"/>
<text text-anchor="middle" x="59.45" y="-15.5" font-family="Courier,monospace" font-size="10.00">justificacao ?</text>
</g>
<!-- TEM_CRITERIO_justificacao&#45;&#45;TEM_CRITERIO -->
<g id="edge7" class="edge">
<title>TEM_CRITERIO_justificacao&#45;&#45;TEM_CRITERIO</title>
<path fill="none" stroke="black" d="M119.14,-18C144.98,-18 175.61,-18 202.93,-18"/>
</g>
<!-- TEM_CATEGORIA&#45;&#45;CATEGORIA -->
<g id="edge9" class="edge">
<title>TEM_CATEGORIA&#45;&#45;CATEGORIA</title>
<path fill="none" stroke="black" d="M925.41,-155.78C951.46,-166.66 990.47,-182.95 1018.53,-194.68"/>
<path fill="none" stroke="transparent" d="M924.64,-157.62C950.69,-168.5 989.7,-184.8 1017.76,-196.52"/>
<path fill="none" stroke="black" d="M923.87,-159.47C949.91,-170.35 988.93,-186.65 1016.99,-198.37"/>
<text text-anchor="middle" x="996.41" y="-191" font-family="Courier,monospace" font-size="10.00">1</text>
</g>
<!-- TEM_CATEGORIA_SITIO&#45;&#45;CATEGORIA -->
<g id="edge11" class="edge">
<title>TEM_CATEGORIA_SITIO&#45;&#45;CATEGORIA</title>
<path fill="none" stroke="black" d="M606.32,-228.29C725.29,-223.15 935.11,-214.07 1017.62,-210.5"/>
<path fill="none" stroke="transparent" d="M606.41,-230.29C725.37,-225.15 935.2,-216.07 1017.7,-212.5"/>
<path fill="none" stroke="black" d="M606.49,-232.29C725.46,-227.14 935.28,-218.07 1017.79,-214.5"/>
<text text-anchor="middle" x="795.24" y="-225" font-family="Courier,monospace" font-size="10.00">1</text>
</g>
<!-- PERIODO_DE_PERIGO -->
<g id="node12" class="node">
<title>PERIODO_DE_PERIGO</title>
<polygon fill="white" stroke="black" points="769.74,-202 650.74,-202 650.74,-166 769.74,-166 769.74,-202"/>
<polygon fill="none" stroke="black" points="773.74,-206 646.74,-206 646.74,-162 773.74,-162 773.74,-206"/>
<text text-anchor="middle" x="710.24" y="-181.5" font-family="Courier,monospace" font-size="10.00">PERIODO_DE_PERIGO</text>
</g>
<!-- ESTEVE_EM_PERIGO&#45;&#45;PERIODO_DE_PERIGO -->
<g id="edge13" class="edge">
<title>ESTEVE_EM_PERIGO&#45;&#45;PERIODO_DE_PERIGO</title>
<path fill="none" stroke="black" d="M392.63,-182C474.05,-182 580.37,-182 646.73,-182"/>
<path fill="none" stroke="transparent" d="M392.63,-184C474.05,-184 580.37,-184 646.73,-184"/>
<path fill="none" stroke="black" d="M392.63,-186C474.05,-186 580.37,-186 646.73,-186"/>
<text text-anchor="middle" x="519.68" y="-187" font-family="Courier,monospace" font-size="10.00">N</text>
</g>
</g>
</svg>
